<?xml version="1.0" encoding="UTF-8"?>
<svg width="1440" height="800" xmlns="http://www.w3.org/2000/svg">
  <defs>
    <pattern id="grid" width="50" height="50" patternUnits="userSpaceOnUse">
      <path d="M 50 0 L 0 0 0 50" fill="none" stroke="white" stroke-width="0.5" opacity="0.3"/>
    </pattern>
    <filter id="glow">
      <feGaussianBlur stdDeviation="2.5" result="coloredBlur"/>
      <feMerge>
        <feMergeNode in="coloredBlur"/>
        <feMergeNode in="SourceGraphic"/>
      </feMerge>
    </filter>
  </defs>
  <rect width="100%" height="100%" fill="url(#grid)"/>
  <g filter="url(#glow)">
    <circle cx="100" cy="100" r="3" fill="white" opacity="0.8"/>
    <circle cx="400" cy="200" r="2" fill="white" opacity="0.6"/>
    <circle cx="700" cy="150" r="3" fill="white" opacity="0.7"/>
    <circle cx="1000" cy="300" r="2" fill="white" opacity="0.6"/>
    <circle cx="1300" cy="100" r="3" fill="white" opacity="0.8"/>
    <circle cx="200" cy="400" r="2" fill="white" opacity="0.7"/>
    <circle cx="500" cy="500" r="3" fill="white" opacity="0.8"/>
    <circle cx="800" cy="450" r="2" fill="white" opacity="0.6"/>
    <circle cx="1100" cy="600" r="3" fill="white" opacity="0.7"/>
    <circle cx="1400" cy="500" r="2" fill="white" opacity="0.6"/>
    <circle cx="300" cy="700" r="3" fill="white" opacity="0.8"/>
    <circle cx="600" cy="650" r="2" fill="white" opacity="0.7"/>
    <circle cx="900" cy="700" r="3" fill="white" opacity="0.8"/>
    <circle cx="1200" cy="750" r="2" fill="white" opacity="0.6"/>
  </g>
  <line x1="100" y1="100" x2="400" y2="200" stroke="white" stroke-width="0.5" opacity="0.2"/>
  <line x1="400" y1="200" x2="700" y2="150" stroke="white" stroke-width="0.5" opacity="0.2"/>
  <line x1="700" y1="150" x2="1000" y2="300" stroke="white" stroke-width="0.5" opacity="0.2"/>
  <line x1="1000" y1="300" x2="1300" y2="100" stroke="white" stroke-width="0.5" opacity="0.2"/>
  <line x1="200" y1="400" x2="500" y2="500" stroke="white" stroke-width="0.5" opacity="0.2"/>
  <line x1="500" y1="500" x2="800" y2="450" stroke="white" stroke-width="0.5" opacity="0.2"/>
  <line x1="800" y1="450" x2="1100" y2="600" stroke="white" stroke-width="0.5" opacity="0.2"/>
  <line x1="1100" y1="600" x2="1400" y2="500" stroke="white" stroke-width="0.5" opacity="0.2"/>
  <line x1="300" y1="700" x2="600" y2="650" stroke="white" stroke-width="0.5" opacity="0.2"/>
  <line x1="600" y1="650" x2="900" y2="700" stroke="white" stroke-width="0.5" opacity="0.2"/>
  <line x1="900" y1="700" x2="1200" y2="750" stroke="white" stroke-width="0.5" opacity="0.2"/>
  <line x1="100" y1="100" x2="200" y2="400" stroke="white" stroke-width="0.5" opacity="0.2"/>
  <line x1="400" y1="200" x2="500" y2="500" stroke="white" stroke-width="0.5" opacity="0.2"/>
  <line x1="700" y1="150" x2="800" y2="450" stroke="white" stroke-width="0.5" opacity="0.2"/>
  <line x1="1000" y1="300" x2="1100" y2="600" stroke="white" stroke-width="0.5" opacity="0.2"/>
  <line x1="1300" y1="100" x2="1400" y2="500" stroke="white" stroke-width="0.5" opacity="0.2"/>
  <line x1="200" y1="400" x2="300" y2="700" stroke="white" stroke-width="0.5" opacity="0.2"/>
  <line x1="500" y1="500" x2="600" y2="650" stroke="white" stroke-width="0.5" opacity="0.2"/>
  <line x1="800" y1="450" x2="900" y2="700" stroke="white" stroke-width="0.5" opacity="0.2"/>
  <line x1="1100" y1="600" x2="1200" y2="750" stroke="white" stroke-width="0.5" opacity="0.2"/>
</svg>